<?xml version="1.0" encoding="utf-8" ?><svg xmlns="http://www.w3.org/2000/svg" xmlns:xlink="http://www.w3.org/1999/xlink" width="1024" height="1024" viewBox="0 0 1024 1024"><path fill="#C5050C" d="M265.983 116.752C287.279 132.312 320.471 142.471 346.472 139.615C361.71 137.942 371.28 135.233 387.608 135.549C414.477 136.069 438.665 145.982 456.922 166.12C480.843 192.507 490.242 222.151 488.995 257.192C484.836 253.586 480.819 248.866 476.021 244.841C451.064 224.322 417.674 207.383 384.77 207.573C377.475 207.616 374.664 213.025 375.966 219.607C376.853 225.442 384.62 226.451 389.596 227.156C434.254 233.491 470.84 262.787 496.067 298.911C500.742 305.606 503.997 313.691 509.009 320.054C511.892 315.699 513.876 310.434 516.557 305.895C538.451 268.845 576.762 237.593 619.267 228.262C625.976 226.183 639.57 228.041 640.476 218.536C641.208 210.851 635.906 207.593 628.494 207.924C589.733 209.651 554.781 231.177 527.345 257.308C526.511 246.672 528.1 233.105 530.092 222.636C537.827 182.113 567.951 147.412 608.532 137.723C635.893 131.19 661.109 141.915 687.98 139.699C709.48 137.926 731.034 128.594 749.052 116.811C748.095 174.025 743.381 235.18 699.474 276.514C665.565 308.437 623.919 319.463 578.513 310.965C568.386 309.07 558.227 304.726 548.227 304.059C546.39 304.353 543.551 307.765 542.834 309.088C534.24 324.949 524.997 344.712 523.695 362.801C523.097 371.112 523.48 381.52 523.621 389.771C523.936 408.177 521.994 427.338 524.826 445.409C526.479 453.274 549.043 471.222 552.662 482.069C555.297 489.966 557.555 495.984 558.054 504.733C558.376 506.714 558.529 515.174 559.253 516.402C561.793 520.711 576.267 529.512 580.169 532.208L614.648 556.35C623.208 562.371 637.624 573.347 646.719 579.156C651.012 581.899 662.669 581.759 668.284 581.479C724.878 578.654 720.048 586.963 719.993 636.738L720.3 696.487C720.308 703.344 720.458 710.205 720.425 717.06C720.41 720.217 719.957 723.462 720.141 726.598C720.207 727.732 720.473 728.999 721.028 730.001C723.053 733.663 728.754 733.552 732.316 734.682C736.621 736.049 739.849 739.048 741.834 743.066C743.056 745.539 743.781 748.213 744.144 750.94C745.217 759.009 745.187 787.652 742.633 794.84C740.812 799.966 736.728 803.717 731.803 805.849C729.146 806.999 726.243 807.691 723.367 808.002C715.857 808.814 687.502 808.972 681.239 806.298C676.564 804.303 673.604 800.403 671.707 795.808C668.619 788.325 669.437 780.378 669.396 772.504C669.349 763.558 668.02 753.934 671.86 745.528C676.637 735.072 681.773 736.834 690.397 733.132C691.786 732.536 693.057 731.391 693.58 729.958C695.255 725.371 694.541 625.73 694.067 614.634C693.981 612.62 694.062 609.428 693.104 607.631C683.608 603.612 650.187 609.909 640.492 605.702C633.791 602.794 627.482 597.053 621.525 592.752C613.635 587.057 567.247 552.495 561.639 551.906C560.909 551.829 560.222 551.754 559.678 552.302C557.932 554.061 557.748 560.028 557.603 562.478C557.352 566.74 557.574 571.388 560.1 575.015C564.218 580.928 573.198 585.831 579.117 589.953C593.224 599.618 607.186 609.493 620.999 619.573C625.837 623.119 634.867 628.994 638.832 634.013C642.782 639.013 639.418 655.335 642.19 661.364C644.346 666.057 658.028 666.436 661.531 671.688C665.333 677.39 666.128 681.386 666.469 687.962C665.819 702.365 672.324 735.675 651.128 738.046C638.289 739.483 621.963 740.462 609.318 739.368C586.412 736.809 593.178 712.47 591.884 697.535C590.128 677.254 594.894 672.185 612.277 664.605C615.733 663.098 615.974 647.683 613.123 645.211C607.585 640.408 574.371 615.397 568.872 614.786C567.689 615.955 567.609 616.871 567.529 618.493C565.709 655.054 569.717 693.729 566.387 729.99C571.336 734.803 578.552 738.14 584.356 742.865C593.158 750.111 604.036 757.232 611.863 765.299C617.021 772.006 607.479 794.49 618.993 795.485C642.256 797.495 640.147 813.509 640.078 831.828C640.033 843.862 641.731 855.191 634.012 866.028C631.259 868.587 627.373 871.251 623.498 871.588C610.518 872.73 596.388 872.721 583.452 871.221C575.144 870.257 566.464 861.529 566.304 853.062C566.051 839.669 564.671 824.714 566.913 811.551C568.322 803.274 577.39 798.754 584.146 795.551C588.784 793.445 588.522 780.425 586.254 778.378C576.307 769.4 564.043 762.575 553.709 753.819C549.238 750.03 544.692 748.676 541.072 743.47C540.249 733.108 540.707 717.049 540.443 706.073C539.568 669.602 541.237 631.663 539.896 595.298L539.394 594.771C536.252 591.496 527.967 584.047 523.281 583.951C521.728 584.923 521.369 587.227 521.368 588.999C521.365 599.749 521.573 610.65 521.607 621.395L521.683 692.166C521.682 697.256 522 714.22 521.016 717.898C518.768 726.303 491.916 739.587 487.888 745.286C487.764 746.685 487.65 746.956 489.087 748.32C497.75 756.541 513.147 764.674 520.294 773.776C521.249 787.159 519.972 804.179 520.475 817.891C521.088 834.58 527.761 827.582 537.77 836.766C544.41 842.858 544.015 858.33 543.816 866.878C543.567 877.597 545.213 893.081 536.699 901.147C534.427 903.261 531.64 904.741 528.617 905.44C520.331 907.42 501.145 906.088 491.948 906.198C469.155 906.469 467.003 887.688 468.147 870.027C469.116 855.072 464.658 837.468 484.186 831.35C488.112 830.12 493.387 829.595 493.726 824.255C493.658 811.294 493.699 798.077 493.185 785.124C487.539 777.74 470.09 765.732 460.432 763.726C456.814 765.977 452.608 770.444 448.908 773.179C442.512 777.908 435.138 781.886 429.597 787.533C429.147 789.222 428.931 791.159 429.72 792.803C431.822 797.182 438.621 796.906 442.69 798.609C446.3 800.119 448.864 802.797 450.175 806.471C453.509 815.821 452.551 852.472 448.236 861.53C446.199 865.806 443.502 868.692 438.976 870.203C431.459 872.714 393.181 872.796 386.688 869.443C382.59 867.327 380.061 862.171 378.897 857.912C376.602 849.513 377.016 821.224 378.335 812.501C378.846 809.12 379.739 805.656 381.482 802.687C385.253 796.265 393.235 796.776 399.545 795.085C410.967 792.023 402.081 779.658 406.74 770.683C408.723 766.863 414.987 763.421 418.499 760.804C433.456 749.658 448.848 739.251 464.183 728.645C471.948 723.275 480.257 718.089 487.482 712.014C489.769 710.091 491.902 707.987 493.423 705.392C493.501 705.259 493.575 705.124 493.651 704.989C493.698 704.105 493.742 703.305 493.747 702.417L493.601 640.864C493.585 628.52 493.896 615.936 493.502 603.54C492.814 598.291 493.481 588.318 490.695 584.074C487.562 579.302 478.244 588.645 475.602 590.612C468.85 595.558 462.038 600.424 455.17 605.208C438.422 616.854 421.666 628.087 404.608 639.696C397.514 642.238 395.352 654.654 397.068 661.493C398.673 667.89 418.431 666.112 419.974 679.956C421.499 693.642 421.406 707.867 420.562 721.527C420.039 729.999 413.316 737.829 405.029 738.905C391.528 740.455 377.179 739.736 363.612 739.105C354.941 738.702 348.295 729.791 347.583 721.634C346.489 707.469 345.864 691.078 348.139 677.134C350.157 664.765 366.282 666.617 370.149 662.301C374.073 657.922 369.446 636.44 374.78 631.473C386.049 620.978 399.988 612.486 412.671 603.86L440.977 584.37C446.497 580.613 455.299 575.561 458.906 570.329C459.084 566.298 459.842 552.466 457.498 549.904C453.212 549.575 434.636 565.717 429.021 569.041C410.081 580.253 392.371 595.2 373.611 606.446C367.901 609.868 319.778 602.93 319.668 609.808C319.07 647.122 319.719 684.385 319.571 721.731C318.774 732.224 323.744 731.844 331.92 735.863C346.17 742.866 342.551 759.106 342.986 772.009C343.693 801.443 339.263 809.417 308.803 808.031C294.27 807.37 270.312 812.137 268.27 789.438C267.082 776.24 267.313 756.74 270.249 743.749C271.983 736.077 283.375 734.169 289.484 731.986C294.491 730.098 292.966 707.846 292.977 702.668L293.017 644.887C293.01 628.462 291.967 609.526 294.953 593.602C299.402 578.01 318.202 581.414 329.51 580.931C337.711 580.581 363.634 583.258 368.647 579.788C396.001 560.848 422.786 541.41 450.424 522.867C458.742 517.287 457.324 513.472 459.176 504.422C461.199 493.587 463.279 484.313 469.267 474.971C471.749 471.135 474.587 467.542 477.741 464.237C489.916 451.594 495.176 450.259 494.327 430.734C492.77 394.908 499.684 358.048 482.377 324.779C478.25 316.846 474.006 309.893 469.27 302.291C463.585 303.837 457.967 305.828 452.139 307.385C437.425 311.4 422.248 313.468 406.996 313.537C372.096 313.689 338.613 299.744 314.139 274.863C281.359 241.626 270.462 197.734 267.727 152.654C266.998 140.645 265.874 128.858 265.983 116.752ZM393.828 707.168C395.432 693.704 394.419 690.093 380.628 691.135L379.694 691.401C374.99 692.611 373.978 695.894 374.38 700.248C375.374 711.006 378.377 712.179 388.349 711.852C391.554 710.798 391.929 709.857 393.828 707.168ZM505.375 876.519C518.674 876.971 516.311 870.745 515.851 859.311L515.211 858.681C512.591 856.021 511.064 855.841 507.276 856.218C497.147 857.013 496.324 858.626 496.624 869.251C496.856 877.46 498.598 876.349 505.375 876.519ZM701.183 759.547C697.071 763.88 694.486 777.123 702.24 779.085C704.631 779.69 708.646 779.434 711.139 778.956L711.99 778.799C716.877 775.741 715.781 772.514 715.902 767.249C715.962 764.644 715.145 760.438 712.019 759.87C708.659 759.331 704.653 759.47 701.183 759.547ZM300.265 759.498C298.038 761.835 297.587 762.705 295.976 765.302C295.965 777.588 297.637 781.858 310.655 778.341C318.063 773.922 316.814 769.495 313.381 761.568C311.978 758.327 303.65 759.385 300.265 759.498ZM634.54 711.522C641.111 706.748 640.84 698.947 637.151 692.329L635.016 691.834C631.29 690.969 627.962 690.925 624.17 691.096C622.384 692.093 620.913 693.394 620.466 695.498C617.899 707.579 621.633 713.685 634.54 711.522ZM596.433 822.522C593.605 826.826 592.014 837.057 596.775 841.509C598.48 843.103 607.107 841.407 609.815 840.593C611.744 839.315 613.491 837.91 613.781 835.453C615.518 820.765 607.21 822.125 596.433 822.522ZM408.556 822.205C401.428 826.085 402.065 837.894 408.489 842.08C410.106 843.134 416.168 842.384 418.376 841.895C425.832 838.275 424.927 831.295 422.011 824.494C420.323 820.559 412.355 822.085 408.556 822.205Z"/></svg>